<svg xmlns="http://www.w3.org/2000/svg" viewBox="0 0 768 1024" fill="none">
  <defs>
    <linearGradient id="intelligence-bg" x1="84" y1="56" x2="688" y2="964" gradientUnits="userSpaceOnUse">
      <stop stop-color="#151A4F" />
      <stop offset="0.58" stop-color="#0A1122" />
      <stop offset="1" stop-color="#030507" />
    </linearGradient>
    <radialGradient id="intelligence-core" cx="0" cy="0" r="1" gradientUnits="userSpaceOnUse" gradientTransform="translate(384 324) rotate(90) scale(320 258)">
      <stop stop-color="#75B8FF" stop-opacity="0.72" />
      <stop offset="1" stop-color="#75B8FF" stop-opacity="0" />
    </radialGradient>
  </defs>
  <rect width="768" height="1024" rx="40" fill="url(#intelligence-bg)" />
  <rect x="28" y="28" width="712" height="968" rx="28" stroke="rgba(255,255,255,0.14)" />
  <circle cx="384" cy="324" r="320" fill="url(#intelligence-core)" />
  <path d="M384 234C456.902 234 516 293.098 516 366C516 421.688 481.52 469.32 432.672 488.48V554H335.328V488.48C286.48 469.32 252 421.688 252 366C252 293.098 311.098 234 384 234Z" fill="#F3E9D7" fill-opacity="0.9"/>
  <path d="M308 626H460V702C460 743.974 425.974 778 384 778C342.026 778 308 743.974 308 702V626Z" fill="#D4A63A" fill-opacity="0.86"/>
  <text x="384" y="884" fill="#F3E9D7" font-family="Rajdhani, sans-serif" font-size="44" font-weight="700" letter-spacing="12" text-anchor="middle">INTELLECT</text>
</svg>
