<svg width="1600" height="900" viewBox="0 0 1600 900" fill="none" xmlns="http://www.w3.org/2000/svg">
  <rect width="1600" height="900" fill="#0B0F14"/>
  <rect width="1600" height="900" fill="url(#paint0_linear)"/>
  <circle cx="1110" cy="430" r="248" stroke="#D4AF37" stroke-opacity="0.55" stroke-width="4"/>
  <circle cx="1110" cy="430" r="174" stroke="#C9A95A" stroke-opacity="0.28" stroke-width="2"/>
  <path d="M980 748C1042 632 1178 562 1282 516C1178 480 1044 400 976 280" stroke="#D4AF37" stroke-opacity="0.18" stroke-width="12" stroke-linecap="round"/>
  <path d="M152 718L496 256H604L278 718H152Z" fill="url(#paint1_linear)" fill-opacity="0.75"/>
  <path d="M734 164L1028 318L944 364L680 222L734 164Z" fill="#121821" fill-opacity="0.7"/>
  <path d="M1056 244L1462 170L1396 326L1070 374L1056 244Z" fill="#121821" fill-opacity="0.78"/>
  <path d="M930 770L1290 672L1480 734L1094 812L930 770Z" fill="#121821" fill-opacity="0.72"/>
  <rect x="0" y="0" width="1600" height="900" fill="url(#paint2_radial)"/>
  <defs>
    <linearGradient id="paint0_linear" x1="800" y1="0" x2="800" y2="900" gradientUnits="userSpaceOnUse">
      <stop stop-color="#121821"/>
      <stop offset="1" stop-color="#0B0F14"/>
    </linearGradient>
    <linearGradient id="paint1_linear" x1="378" y1="256" x2="378" y2="718" gradientUnits="userSpaceOnUse">
      <stop stop-color="#C9A95A" stop-opacity="0.34"/>
      <stop offset="1" stop-color="#121821" stop-opacity="0"/>
    </linearGradient>
    <radialGradient id="paint2_radial" cx="0" cy="0" r="1" gradientUnits="userSpaceOnUse" gradientTransform="translate(1094 430) rotate(112.619) scale(506.636 693.956)">
      <stop offset="0.05" stop-color="#D4AF37" stop-opacity="0.16"/>
      <stop offset="0.44" stop-color="#0B0F14" stop-opacity="0"/>
      <stop offset="1" stop-color="#0B0F14" stop-opacity="0.92"/>
    </radialGradient>
  </defs>
</svg>
